<svg width="52" height="37" viewBox="0 0 52 37" fill="none" xmlns="http://www.w3.org/2000/svg">
<path d="M13.2 3.23994C13.2 1.82994 14.34 0.689941 15.75 0.689941H48.84C50.25 0.689941 51.39 1.82994 51.39 3.23994C51.39 4.64994 50.25 5.78993 48.84 5.78993H15.75C14.34 5.78993 13.2 4.64994 13.2 3.23994ZM48.83 15.9599H3.02002C1.61002 15.9599 0.469971 17.0999 0.469971 18.5099C0.469971 19.9199 1.61002 21.0599 3.02002 21.0599H48.83C50.24 21.0599 51.38 19.9199 51.38 18.5099C51.38 17.0999 50.24 15.9599 48.83 15.9599ZM48.83 31.2299H25.92C24.51 31.2299 23.37 32.3699 23.37 33.7799C23.37 35.1899 24.51 36.3299 25.92 36.3299H48.83C50.24 36.3299 51.38 35.1899 51.38 33.7799C51.38 32.3699 50.24 31.2299 48.83 31.2299Z" fill="#4E2520"/>
</svg>
