<?xml version="1.0" encoding="UTF-8"?>
<svg id="Layer_2" data-name="Layer 2" xmlns="http://www.w3.org/2000/svg" viewBox="0 0 175.56 47.65">
  <defs>
    <style>
      .cls-1 {
        fill: #f3793c;
      }

      .cls-2 {
        fill: #4e2520;
      }
    </style>
  </defs>
  <g id="Layer_47" data-name="Layer 47">
    <g>
      <g>
        <path class="cls-1" d="M29.11,28.05c-2.33-2.33-2.33-6.12,0-8.45l11.86-11.86V0l-15.73,15.73c-4.46,4.46-4.46,11.73,0,16.19l15.73,15.73v-7.73l-11.86-11.86Z"/>
        <path class="cls-1" d="M11.86,28.05c2.33-2.33,2.33-6.12,0-8.45L0,7.73V0s15.73,15.73,15.73,15.73c4.46,4.46,4.46,11.73,0,16.19L0,47.65v-7.73s11.86-11.86,11.86-11.86Z"/>
      </g>
      <g>
        <path class="cls-2" d="M50.53,22.66l6.01,6.6h-2.7l-4.96-5.43-4.8,5.43h-2.77l5.85-6.52-5.64-6.08h2.87l4.54,4.94,4.48-4.94h2.74l-5.61,6Z"/>
        <path class="cls-2" d="M70.43,29.53c-2.08,0-3.83-.45-5.32-1.16l.3-1.93c1.56.81,3.19,1.23,5.11,1.23,2.5,0,3.75-.91,3.75-2.03,0-2.69-9.02-.79-9.02-5.39,0-1.9,1.61-3.81,5.78-3.81,1.75,0,3.53.3,4.89.81l-.32,1.83c-1.56-.5-2.99-.77-4.54-.77-2.74,0-3.63.99-3.63,1.8,0,2.62,9.02.6,9.02,5.38,0,2.3-2.13,4.07-6.01,4.07Z"/>
        <path class="cls-2" d="M88.15,29.35l3.93,2.15-3.16.55-3.34-2.54c-5.06-.15-7.04-2.65-7.04-6.55s2.1-6.52,7.56-6.52,7.54,2.49,7.54,6.52c0,3.46-1.55,5.85-5.49,6.38ZM86.1,18.35c-3.73,0-5.16,1.41-5.16,4.62s1.43,4.65,5.16,4.65,5.14-1.48,5.14-4.65-1.38-4.62-5.14-4.62Z"/>
        <path class="cls-2" d="M110.57,23.49c0,4.18-2.54,6.05-6.94,6.05s-6.99-1.86-6.99-6.05v-6.82h2.28v6.84c0,2.74,1.58,4.08,4.7,4.08s4.67-1.36,4.67-4.08v-6.84h2.27v6.82Z"/>
        <path class="cls-2" d="M124.4,26.39h-8.53l-1.51,2.87h-2.47l7.02-12.6h2.54l7.05,12.6h-2.6l-1.49-2.87ZM119.54,19.39l-2.77,5.26h6.74l-2.72-5.26-.59-1.23h-.05l-.6,1.23Z"/>
        <path class="cls-2" d="M139.35,23.92l4.65,5.34h-2.81l-3.88-4.89h-4.15v4.89h-2.28v-12.6h6.52c3.66,0,5.41,1.43,5.41,3.75,0,1.8-1.18,3.16-3.46,3.51ZM137.33,18.43h-4.17v4.33h4c2.3,0,3.28-.77,3.28-2.25,0-1.34-.89-2.08-3.11-2.08Z"/>
        <path class="cls-2" d="M158.28,27.38l-.05,1.88h-11.74v-12.6h11.34l.05,1.9h-9.12v3.38h7.81v1.63h-7.81v3.81h9.52Z"/>
        <path class="cls-2" d="M168,29.26h-6.53v-12.6h6.53c5.31,0,7.56,2.42,7.56,6.28,0,4.2-2.59,6.32-7.56,6.32ZM167.9,18.63h-4.15v8.67h4.15c3.61,0,5.26-1.23,5.26-4.35,0-2.91-1.46-4.32-5.26-4.32Z"/>
      </g>
    </g>
  </g>
</svg>